<svg aria-hidden="true" style="position: absolute; width: 0; height: 0; overflow: hidden;" version="1.1" xmlns="http://www.w3.org/2000/svg" xmlns:xlink="http://www.w3.org/1999/xlink">
<defs>
<symbol id="icon-coin" viewBox="0 0 32 32">
<path fill="#fd9222" style="fill: var(--color1, #fd9222)" d="M16 0.762c-8.381 0-15.238 6.857-15.238 15.238s6.857 15.238 15.238 15.238 15.238-6.857 15.238-15.238-6.857-15.238-15.238-15.238zM16 28.191c-6.705 0-12.191-5.486-12.191-12.191s5.486-12.191 12.191-12.191c6.704 0 12.19 5.486 12.19 12.191s-5.486 12.191-12.19 12.191z"></path>
<path fill="#fd9222" style="fill: var(--color1, #fd9222)" d="M17.981 14.477h-3.961c-0.762 0-1.371-0.61-1.371-1.371 0-0.762 0.609-1.371 1.371-1.371h5.638c0.914 0 1.523-0.61 1.523-1.525s-0.609-1.523-1.523-1.523h-2.134v-1.371c0-0.914-0.609-1.523-1.523-1.523s-1.523 0.609-1.523 1.523v1.371h-0.457c-2.44 0.002-4.417 1.979-4.419 4.419v0c0.003 2.439 1.98 4.416 4.419 4.418h3.809c0.762 0 1.371 0.61 1.371 1.371 0 0.762-0.609 1.371-1.371 1.371h-5.638c-0.914 0-1.525 0.61-1.525 1.525s0.61 1.523 1.525 1.523h2.286v1.371c0 0.914 0.609 1.523 1.523 1.523s1.523-0.609 1.523-1.523v-1.371h0.457c2.44-0.002 4.417-1.979 4.419-4.419v-0c-0.003-2.439-1.98-4.416-4.419-4.418h-0z"></path>
</symbol>
<symbol id="icon-instagram" viewBox="0 0 32 32">
<path stroke-linejoin="round" stroke-linecap="round" stroke-miterlimit="4" stroke-width="2.6667" d="M22.667 2.667h-13.333c-3.682 0-6.667 2.985-6.667 6.667v13.333c0 3.682 2.985 6.667 6.667 6.667h13.333c3.682 0 6.667-2.985 6.667-6.667v-13.333c0-3.682-2.985-6.667-6.667-6.667z"></path>
<path stroke-linejoin="round" stroke-linecap="round" stroke-miterlimit="4" stroke-width="2.6667" d="M21.334 15.16c0.165 1.11-0.025 2.243-0.542 3.239s-1.334 1.803-2.336 2.307c-1.002 0.504-2.138 0.68-3.245 0.502s-2.131-0.701-2.924-1.494-1.316-1.816-1.494-2.924c-0.178-1.108-0.003-2.243 0.502-3.245s1.312-1.819 2.308-2.336 2.129-0.706 3.239-0.542c1.132 0.168 2.18 0.695 2.989 1.504s1.337 1.857 1.504 2.989z"></path>
<path stroke-linejoin="round" stroke-linecap="round" stroke-miterlimit="4" stroke-width="2.6667" d="M23.333 8.667h0.013"></path>
</symbol>
<symbol id="icon-twitter" viewBox="0 0 32 32">
<path stroke-linejoin="round" stroke-linecap="round" stroke-miterlimit="4" stroke-width="2.6667" d="M30.667 4c-1.277 0.901-2.691 1.589-4.187 2.040-0.803-0.923-1.87-1.578-3.057-1.875s-2.437-0.222-3.58 0.214c-1.143 0.436-2.125 1.213-2.812 2.226s-1.047 2.212-1.031 3.435v1.333c-2.343 0.061-4.665-0.459-6.759-1.513s-4.561-3.563-5.908-5.481c0 0-4.667 12.954 7.333 18.287-2.746 1.864-6.017 2.799-9.333 2.667 12 6.667 26.667 0 26.667-15.333-0.001-0.371-0.037-0.742-0.107-1.107 1.361-1.342 2.321-3.036 2.773-4.893z"></path>
</symbol>
<symbol id="icon-chocolate-logo" viewBox="0 0 32 32">
<path fill="#fcf1e0" style="fill: var(--color2, #fcf1e0)" d="M3.944 20.076l10.777-17.424 0.64-0.675 8.235 5.491 0.057 3.315 2.009 3.28-8.88 14.076-12.839-8.063z"></path>
<path fill="none" stroke="#fd9222" style="stroke: var(--color1, #fd9222)" stroke-linejoin="round" stroke-linecap="round" stroke-miterlimit="4" stroke-width="2.6667" d="M21.635 23.88l-14.187-8.864M11.361 8.599l14.185 8.864M10.629 25.864l11.736-19.249M27.176 14.788c-3.040-1.899-4.233-3.383-2.277-6.591l-9.627-6.016-11.735 19.251 14.187 8.864 9.453-15.507z"></path>
</symbol>
<symbol id="icon-chocolate" viewBox="0 0 32 32">
<path fill="#000" style="fill: var(--color3, #000)" d="M13.597 0.456l8.306 8.316 0.088-0.088c0.17-0.167 0.403-0.27 0.661-0.27 0.25 0 0.477 0.097 0.646 0.256l-0-0 0.963 0.963c0.337 0.337 0.348 0.85 0.092 1.207l-0.004 0.008-0.158 0.212 6.797 6.797c0.607 0.607 0.607 1.578 0 2.185l-10.406 10.406c-0.607 0.607-1.578 0.607-2.185 0l-4.907-4.907c-0.171 0.215-0.434 0.352-0.728 0.352-0.257 0-0.49-0.105-0.658-0.274l-2.869-2.869c-0.167-0.17-0.27-0.403-0.27-0.661 0-0.25 0.097-0.477 0.256-0.646l-0 0 0.007-0.008 0.085-0.084-8.306-8.306c-0.607-0.607-0.607-1.578 0-2.185l10.406-10.406c0.607-0.607 1.578-0.607 2.185 0v0.001zM20.86 9.813l-1.938-1.937c-0.119-0.122-0.285-0.199-0.469-0.199s-0.35 0.076-0.469 0.198l-3.95 3.951c-0.122 0.121-0.197 0.289-0.197 0.474s0.075 0.353 0.197 0.474l1.93 1.93 0.673-0.673-1.727-1.727 3.542-3.553 1.731 1.737 0.676-0.676zM15.258 15.41l-1.935-1.935c-0.119-0.122-0.285-0.198-0.469-0.198s-0.35 0.076-0.469 0.198l-3.962 3.962c-0.265 0.254-0.265 0.673 0 0.938l1.933 1.933 0.68-0.68-1.732-1.726 3.553-3.542 1.726 1.725 0.675-0.674zM8.079 6.834l3.95 3.95c0.265 0.265 0.684 0.265 0.938-0.011l3.95-3.95c0.122-0.117 0.199-0.281 0.199-0.463 0-0 0-0 0-0v0h0.011c0-0.166-0.066-0.342-0.199-0.474l-3.95-3.95c-0.121-0.123-0.289-0.198-0.474-0.198s-0.354 0.076-0.474 0.198l-0 0-3.95 3.961c-0.265 0.254-0.265 0.673 0 0.938zM2.485 12.428l3.95 3.95c0.265 0.265 0.684 0.265 0.938 0l3.95-3.95c0.123-0.117 0.199-0.281 0.199-0.464 0-0.004-0-0.008-0-0.012v0.001h0.011c0-0.177-0.066-0.342-0.199-0.474l-3.95-3.95c-0.119-0.122-0.285-0.199-0.469-0.199s-0.35 0.076-0.469 0.198l-3.962 3.962c-0.265 0.254-0.265 0.673 0 0.938zM10.135 22.088l2.606 2.607 10.633-14.389-0.723-0.723-12.516 12.504z"></path>
<path fill="#fd9222" style="fill: var(--color1, #fd9222)" d="M13.597 0.456l8.306 8.316 0.088-0.088c0.17-0.167 0.403-0.27 0.661-0.27 0.25 0 0.477 0.097 0.646 0.256l-0-0 0.963 0.963c0.337 0.337 0.348 0.85 0.092 1.207l-0.004 0.008-0.158 0.212 6.797 6.797c0.607 0.607 0.607 1.578 0 2.185l-10.406 10.406c-0.607 0.607-1.578 0.607-2.185 0l-4.907-4.907c-0.171 0.215-0.434 0.352-0.728 0.352-0.257 0-0.49-0.105-0.658-0.274l-2.869-2.869c-0.167-0.17-0.27-0.403-0.27-0.661 0-0.25 0.097-0.477 0.256-0.646l-0 0 0.007-0.008 0.085-0.084-8.306-8.306c-0.607-0.607-0.607-1.578 0-2.185l10.406-10.406c0.607-0.607 1.578-0.607 2.185 0v0.001zM20.86 9.813l-1.938-1.937c-0.119-0.122-0.285-0.199-0.469-0.199s-0.35 0.076-0.469 0.198l-3.95 3.951c-0.122 0.121-0.197 0.289-0.197 0.474s0.075 0.353 0.197 0.474l1.93 1.93 0.673-0.673-1.727-1.727 3.542-3.553 1.731 1.737 0.676-0.676zM15.258 15.41l-1.935-1.935c-0.119-0.122-0.285-0.198-0.469-0.198s-0.35 0.076-0.469 0.198l-3.962 3.962c-0.265 0.254-0.265 0.673 0 0.938l1.933 1.933 0.68-0.68-1.732-1.726 3.553-3.542 1.726 1.725 0.675-0.674zM8.079 6.834l3.95 3.95c0.265 0.265 0.684 0.265 0.938-0.011l3.95-3.95c0.122-0.117 0.199-0.281 0.199-0.463 0-0 0-0 0-0v0h0.011c0-0.166-0.066-0.342-0.199-0.474l-3.95-3.95c-0.121-0.123-0.289-0.198-0.474-0.198s-0.354 0.076-0.474 0.198l-0 0-3.95 3.961c-0.265 0.254-0.265 0.673 0 0.938zM2.485 12.428l3.95 3.95c0.265 0.265 0.684 0.265 0.938 0l3.95-3.95c0.123-0.117 0.199-0.281 0.199-0.464 0-0.004-0-0.008-0-0.012v0.001h0.011c0-0.177-0.066-0.342-0.199-0.474l-3.95-3.95c-0.119-0.122-0.285-0.199-0.469-0.199s-0.35 0.076-0.469 0.198l-3.962 3.962c-0.265 0.254-0.265 0.673 0 0.938zM10.135 22.088l2.606 2.607 10.633-14.389-0.723-0.723-12.516 12.504z"></path>
</symbol>
<symbol id="icon-spoon" viewBox="0 0 32 32">
<path fill="#fd9222" style="fill: var(--color1, #fd9222)" d="M15.451 14.106c-0.732-0.884-1.176-2.029-1.176-3.278 0-0.001 0-0.003 0-0.004v0c0-4.324 5.18-8.642 10.362-8.642 2.861 0.001 5.18 2.321 5.181 5.182v0c0 5.182-4.318 10.364-8.646 10.364-0.001 0-0.002 0-0.003 0-1.249 0-2.395-0.444-3.287-1.184l0.009 0.007-12.759 12.761c-0.307 0.283-0.719 0.457-1.171 0.457-0.955 0-1.73-0.775-1.73-1.73 0-0.453 0.174-0.865 0.459-1.173l-0.001 0.001 12.762-12.761z"></path>
</symbol>
<symbol id="icon-x" viewBox="0 0 32 32">
<path fill="none" stroke="#fff" style="stroke: var(--color1, #fff)" stroke-linejoin="round" stroke-linecap="round" stroke-miterlimit="4" stroke-width="4.5714" d="M29.334 2.667l-26.667 26.667M2.667 2.667l26.667 26.667"></path>
</symbol>
<symbol id="icon-angle" viewBox="0 0 32 32">
<path fill="#fd9222" style="fill: var(--color1, #fd9222)" d="M16.947 17.866c-0.241 0.244-0.576 0.394-0.946 0.394s-0.705-0.151-0.946-0.394l-0-0-6.109-6.119c-0.244-0.264-0.592-0.428-0.979-0.428-0.737 0-1.334 0.597-1.334 1.334 0 0.384 0.162 0.729 0.421 0.973l0.001 0.001 6.119 6.121c0.724 0.723 1.723 1.17 2.827 1.17s2.103-0.447 2.827-1.17l6.119-6.121c0.227-0.239 0.367-0.562 0.367-0.918 0-0.737-0.597-1.334-1.334-1.334-0.359 0-0.686 0.142-0.926 0.373l0-0-6.108 6.119z"></path>
</symbol>
<symbol id="icon-menu" viewBox="0 0 47 32">
<path stroke-linejoin="round" stroke-linecap="round" stroke-miterlimit="4" stroke-width="4.3636" d="M1.961 29.153h42.964M1.961 15.615h42.964M1.961 2.077h42.964"></path>
</symbol>
</defs>
</svg>
